# xmcd
# Track frame offsets:
# 150
# 15340
# 35200
#
# Disc length: 724 seconds
# Revision: 0
# Processed by: cddbd v1.4PL0 Copyright (c) Steve Scherf et al.
# Submitted via: VisiTrax 2.9.3.171 - For more info visit www.synapsa.com
#
DISCID=1b02d203
DTITLE=Hermes House Band - Country roads
DYEAR=2001
DGENRE=Pop
TTITLE0=Country roads -Original Live Radio Version
TTITLE1=Country roads - Happy Party Extended Version
TTITLE2=Country roads - Dance Extended Version
EXTD=ID3G: 0
EXTT0=
EXTT1=
EXTT2=
PLAYORDER=
